<svg xmlns="http://www.w3.org/2000/svg" viewBox="0 0 32 32" width="32" height="32">
  <!-- Background -->
  <rect width="32" height="32" fill="#1a1a1a"/>
  
  <!-- Grid pattern representing cellular automata -->
  <g stroke="#333" stroke-width="0.5" fill="none">
    <!-- Vertical lines -->
    <line x1="4" y1="4" x2="4" y2="28"/>
    <line x1="8" y1="4" x2="8" y2="28"/>
    <line x1="12" y1="4" x2="12" y2="28"/>
    <line x1="16" y1="4" x2="16" y2="28"/>
    <line x1="20" y1="4" x2="20" y2="28"/>
    <line x1="24" y1="4" x2="24" y2="28"/>
    <line x1="28" y1="4" x2="28" y2="28"/>
    
    <!-- Horizontal lines -->
    <line x1="4" y1="4" x2="28" y2="4"/>
    <line x1="4" y1="8" x2="28" y2="8"/>
    <line x1="4" y1="12" x2="28" y2="12"/>
    <line x1="4" y1="16" x2="28" y2="16"/>
    <line x1="4" y1="20" x2="28" y2="20"/>
    <line x1="4" y1="24" x2="28" y2="24"/>
    <line x1="4" y1="28" x2="28" y2="28"/>
  </g>
  
  <!-- Live cells representing a simple pattern -->
  <g fill="#00ff88">
    <!-- Glider pattern -->
    <rect x="8" y="8" width="4" height="4"/>
    <rect x="16" y="8" width="4" height="4"/>
    <rect x="24" y="8" width="4" height="4"/>
    <rect x="12" y="12" width="4" height="4"/>
    <rect x="20" y="12" width="4" height="4"/>
    <rect x="16" y="16" width="4" height="4"/>
    <rect x="12" y="20" width="4" height="4"/>
    <rect x="20" y="20" width="4" height="4"/>
    <rect x="8" y="24" width="4" height="4"/>
    <rect x="24" y="24" width="4" height="4"/>
  </g>
</svg> 